STARTFONT 2.1
FONT -null-null-R-null--8-8-75-75-c-80-iso10646-1
SIZE 8 75 75
FONTBOUNDINGBOX 9 8 0 0
STARTPROPERTIES 6
COPYRIGHT "Gissio"
FONT_ASCENT 8
FONT_DESCENT 0
POINT_SIZE 8
X_HEIGHT 8
CAP_HEIGHT 8
ENDPROPERTIES
CHARS 24
STARTCHAR U+0040
ENCODING 64
SWIDTH 111 0
DWIDTH 1 0
BBX 0 0 0 0
BITMAP
ENDCHAR
STARTCHAR U+0041
ENCODING 65
SWIDTH 1000 0
DWIDTH 9 0
BBX 5 5 2 1
BITMAP
70
70
20
70
F8
ENDCHAR
STARTCHAR U+0042
ENCODING 66
SWIDTH 1000 0
DWIDTH 9 0
BBX 5 6 2 1
BITMAP
20
50
70
70
20
D8
ENDCHAR
STARTCHAR U+0043
ENCODING 67
SWIDTH 1000 0
DWIDTH 9 0
BBX 6 7 1 1
BITMAP
14
38
6C
FC
5C
38
7C
ENDCHAR
STARTCHAR U+0044
ENCODING 68
SWIDTH 1000 0
DWIDTH 9 0
BBX 5 6 2 1
BITMAP
A8
F8
70
70
70
F8
ENDCHAR
STARTCHAR U+0045
ENCODING 69
SWIDTH 1000 0
DWIDTH 9 0
BBX 7 7 1 1
BITMAP
10
54
AA
7C
7C
38
7C
ENDCHAR
STARTCHAR U+0046
ENCODING 70
SWIDTH 1000 0
DWIDTH 9 0
BBX 5 7 2 1
BITMAP
20
70
20
F8
F8
70
F8
ENDCHAR
STARTCHAR U+0047
ENCODING 71
SWIDTH 111 0
DWIDTH 1 0
BBX 0 0 0 0
BITMAP
ENDCHAR
STARTCHAR U+0048
ENCODING 72
SWIDTH 111 0
DWIDTH 1 0
BBX 0 0 0 0
BITMAP
ENDCHAR
STARTCHAR U+0049
ENCODING 73
SWIDTH 1000 0
DWIDTH 9 0
BBX 7 7 1 0
BITMAP
38
44
44
28
44
82
7C
ENDCHAR
STARTCHAR U+004A
ENCODING 74
SWIDTH 1000 0
DWIDTH 9 0
BBX 7 8 1 0
BITMAP
10
28
54
44
44
6C
92
6C
ENDCHAR
STARTCHAR U+004B
ENCODING 75
SWIDTH 1000 0
DWIDTH 9 0
BBX 8 8 0 0
BITMAP
15
22
49
81
51
22
41
3E
ENDCHAR
STARTCHAR U+004C
ENCODING 76
SWIDTH 1000 0
DWIDTH 9 0
BBX 7 8 1 0
BITMAP
54
AA
82
44
44
44
82
7C
ENDCHAR
STARTCHAR U+004D
ENCODING 77
SWIDTH 1000 0
DWIDTH 9 0
BBX 9 8 0 0
BITMAP
3600
5500
AA80
4100
4100
2200
4100
3E00
ENDCHAR
STARTCHAR U+004E
ENCODING 78
SWIDTH 1000 0
DWIDTH 9 0
BBX 7 8 1 0
BITMAP
28
44
6C
82
82
44
82
7C
ENDCHAR
STARTCHAR U+004F
ENCODING 79
SWIDTH 111 0
DWIDTH 1 0
BBX 0 0 0 0
BITMAP
ENDCHAR
STARTCHAR U+0050
ENCODING 80
SWIDTH 1000 0
DWIDTH 9 0
BBX 9 8 0 0
BITMAP
AA80
5500
AA80
5500
AA80
5500
AA80
5500
ENDCHAR
STARTCHAR U+0051
ENCODING 81
SWIDTH 1000 0
DWIDTH 9 0
BBX 9 8 0 0
BITMAP
AA80
4100
9C80
5D00
AA80
5D00
BE80
4100
ENDCHAR
STARTCHAR U+0052
ENCODING 82
SWIDTH 1000 0
DWIDTH 9 0
BBX 9 8 0 0
BITMAP
A280
4900
9480
5D00
9C80
4900
B680
4900
ENDCHAR
STARTCHAR U+0053
ENCODING 83
SWIDTH 1000 0
DWIDTH 9 0
BBX 9 8 0 0
BITMAP
AA80
5D00
B680
7E00
AE80
5D00
BE80
4100
ENDCHAR
STARTCHAR U+0054
ENCODING 84
SWIDTH 1000 0
DWIDTH 9 0
BBX 9 8 0 0
BITMAP
8080
2A00
BE80
5D00
9C80
5D00
BE80
4100
ENDCHAR
STARTCHAR U+0055
ENCODING 85
SWIDTH 1000 0
DWIDTH 9 0
BBX 9 8 0 0
BITMAP
8880
2A00
5500
3E00
BE80
5D00
BE80
4100
ENDCHAR
STARTCHAR U+0056
ENCODING 86
SWIDTH 1000 0
DWIDTH 9 0
BBX 9 8 0 0
BITMAP
AA80
5D00
8880
3E00
BE80
5D00
BE80
4100
ENDCHAR
STARTCHAR U+0057
ENCODING 87
SWIDTH 111 0
DWIDTH 1 0
BBX 0 0 0 0
BITMAP
ENDCHAR
ENDFONT
